HIERARCHY
ROOT root
{
	OFFSET 0.000000 0.000000 0.000000
	CHANNELS 6 Xposition Yposition Zposition Zrotation Yrotation Xrotation
	JOINT lhip
	{
		OFFSET 0.058581 -0.082280 -0.017664
		CHANNELS 3 Zrotation Yrotation Xrotation
		JOINT lknee
		{
			OFFSET 0.043451 -0.386469 0.008037
			CHANNELS 3 Zrotation Yrotation Xrotation
			JOINT lankle
			{
				OFFSET -0.014790 -0.426874 -0.037428
				CHANNELS 3 Zrotation Yrotation Xrotation
				JOINT ltoe
				{
					OFFSET 0.041054 -0.060286 0.122042
					CHANNELS 3 Zrotation Yrotation Xrotation
					End Site
					{
						OFFSET 0.000000 0.000000 0.000000
					}
				}
			}
		}
	}
	JOINT rhip
	{
		OFFSET -0.060310 -0.090513 -0.013543
		CHANNELS 3 Zrotation Yrotation Xrotation
		JOINT rknee
		{
			OFFSET -0.043257 -0.383688 -0.004843
			CHANNELS 3 Zrotation Yrotation Xrotation
			JOINT rankle
			{
				OFFSET 0.019056 -0.420046 -0.034562
				CHANNELS 3 Zrotation Yrotation Xrotation
				JOINT rtoe
				{
					OFFSET -0.034840 -0.062106 0.130323
					CHANNELS 3 Zrotation Yrotation Xrotation
					End Site
					{
						OFFSET 0.000000 0.000000 0.000000
					}
				}
			}
		}
	}
	JOINT lowerback
	{
		OFFSET 0.004439 0.124404 -0.038385
		CHANNELS 3 Zrotation Yrotation Xrotation
		JOINT upperback
		{
			OFFSET 0.004488 0.137956 0.026820
			CHANNELS 3 Zrotation Yrotation Xrotation
			JOINT chest
			{
				OFFSET -0.002265 0.056032 0.002855
				CHANNELS 3 Zrotation Yrotation Xrotation
				JOINT lowerneck
				{
					OFFSET -0.013390 0.211636 -0.033468
					CHANNELS 3 Zrotation Yrotation Xrotation
					JOINT upperneck
					{
						OFFSET 0.010113 0.088937 0.050410
						CHANNELS 3 Zrotation Yrotation Xrotation
						End Site
						{
							OFFSET 0.000000 0.000000 0.000000
						}
					}
				}
				JOINT lclavicle
				{
					OFFSET 0.071702 0.114000 -0.018898
					CHANNELS 3 Zrotation Yrotation Xrotation
					JOINT lshoulder
					{
						OFFSET 0.122921 0.045205 -0.019046
						CHANNELS 3 Zrotation Yrotation Xrotation
						JOINT lelbow
						{
							OFFSET 0.255332 -0.015649 -0.022946
							CHANNELS 3 Zrotation Yrotation Xrotation
							JOINT lwrist
							{
								OFFSET 0.265709 0.012698 -0.007375
								CHANNELS 3 Zrotation Yrotation Xrotation
								End Site
								{
									OFFSET 0.000000 0.000000 0.000000
								}
							}
						}
					}
				}
				JOINT rclavicle
				{
					OFFSET -0.082954 0.112472 -0.023707
					CHANNELS 3 Zrotation Yrotation Xrotation
					JOINT rshoulder
					{
						OFFSET -0.113228 0.046853 -0.008472
						CHANNELS 3 Zrotation Yrotation Xrotation
						JOINT relbow
						{
							OFFSET -0.260127 -0.014369 -0.031269
							CHANNELS 3 Zrotation Yrotation Xrotation
							JOINT rwrist
							{
								OFFSET -0.269108 0.006794 -0.006027
								CHANNELS 3 Zrotation Yrotation Xrotation
								End Site
								{
									OFFSET 0.000000 0.000000 0.000000
								}
							}
						}
					}
				}
			}
		}
	}
}
MOTION
Frames: 11
Frame Time: 0.033333
-0.410350 0.241907 0.986115 79.523554 -0.926091 82.124529 5.020388 -0.622403 -12.055864 -16.749064 -3.662799 49.308261 -4.016992 1.665239 -14.553004 0.000000 -0.000000 0.000000 -2.528813 -1.497766 1.954553 4.312164 7.410570 23.058994 1.083284 3.345151 -23.190599 0.000000 -0.000000 0.000000 2.455752 2.118794 17.485234 1.900657 0.217062 -1.349489 -1.106288 0.724716 4.517932 -0.787683 14.519401 16.563285 -6.935314 10.181268 18.940834 -27.612970 11.897931 0.176001 -57.770253 -3.422821 6.941154 13.672285 -38.079686 5.182492 -1.734713 -3.298408 -8.052720 26.840568 -5.688396 2.325362 53.028112 6.109395 10.300226 -15.609138 26.842376 -8.678692 3.173876 1.501446 -10.307492 
-0.401361 0.256700 0.986920 77.471660 -1.165441 82.042726 6.892434 -1.151867 -13.207376 -14.813718 -4.946890 50.424981 -3.263393 3.188444 -14.483710 0.000000 -0.000000 0.000000 -4.064615 -1.228338 2.283851 4.591202 8.746775 22.865918 1.590872 4.113355 -23.121672 0.000000 -0.000000 0.000000 2.330501 2.371669 17.101906 1.719844 0.355619 -1.416943 -1.305983 0.734375 4.594632 -0.340222 14.839992 16.985731 -6.674524 10.566078 19.118271 -28.145524 12.656837 -0.243201 -57.049001 -3.077474 6.952471 13.234969 -37.939212 5.684421 -1.684900 -3.054560 -7.159944 27.198527 -6.745826 2.077920 52.505820 6.286545 10.494880 -15.442296 28.279237 -8.442165 3.142971 1.706024 -9.650439 
-0.392134 0.272692 0.986081 75.078235 -1.396830 82.240824 8.984137 -1.958695 -13.479938 -12.751345 -7.326354 49.316821 -2.193084 5.031474 -13.791660 0.000000 -0.000000 0.000000 -5.643928 -0.843407 2.042320 4.954847 10.103318 23.052189 1.811721 4.799538 -23.205196 0.000000 -0.000000 0.000000 2.162044 2.536099 16.647286 1.429977 0.631860 -1.422807 -1.434314 0.847576 4.436110 -0.038077 15.355981 17.202938 -6.611828 10.981461 19.102966 -28.560054 13.384773 -0.720663 -56.790603 -2.819837 6.758020 13.614462 -37.159334 4.756229 -1.473059 -2.512385 -7.236614 27.355509 -7.145958 2.316821 52.073616 6.210855 10.898978 -15.540864 29.920881 -8.521277 2.953207 1.852148 -9.269324 
-0.381759 0.290252 0.984229 72.388380 -1.650407 82.372051 11.068848 -3.275208 -12.497563 -11.445322 -10.658898 46.449716 -1.842687 6.489703 -13.242981 0.000000 -0.000000 0.000000 -7.247276 -0.213456 1.544890 5.357609 11.565157 23.683086 2.228570 5.263053 -23.572511 0.000000 -0.000000 0.000000 1.934186 2.587387 16.412449 1.144089 1.000729 -1.223182 -1.529100 0.874814 4.032366 0.157105 16.393060 17.034869 -6.648613 11.491080 19.118418 -29.236939 14.084859 -1.175578 -56.250595 -2.525530 6.541327 14.066496 -36.349706 3.122214 -0.841003 -2.099423 -8.207104 27.734390 -7.331417 2.556063 51.387557 6.314460 11.413725 -15.703686 31.251071 -8.961803 2.386842 1.930637 -8.974002 
-0.370112 0.309645 0.981022 69.578273 -1.955723 82.416324 12.768839 -4.833003 -10.560511 -10.480929 -15.281184 42.385864 -1.412931 7.333660 -12.934819 0.000000 -0.000000 0.000000 -8.935974 0.761228 0.714927 5.631119 12.927275 24.811164 2.745451 5.718774 -23.969518 0.000000 -0.000000 0.000000 1.568590 2.501337 15.901075 0.880687 1.414874 -0.535720 -1.645260 0.991055 3.709305 0.638929 17.452226 16.843103 -6.845489 11.799898 18.985188 -29.493162 14.299397 -1.071506 -56.139026 -2.555484 6.526432 15.006504 -35.371543 1.272890 -0.550854 -1.992938 -9.228085 28.020961 -6.967779 2.681322 50.889345 6.924853 11.742787 -15.648027 30.994297 -9.556272 2.204078 2.128874 -9.124467 
-0.357319 0.330858 0.976743 66.966265 -2.040314 82.569961 14.081584 -6.264428 -8.101249 -9.727674 -20.696077 37.728481 -2.120388 6.598854 -13.202376 0.000000 -0.000000 0.000000 -10.540673 1.517233 -0.221993 5.916238 14.130737 25.567498 3.607977 6.451090 -24.330634 0.000000 -0.000000 0.000000 1.477248 2.286117 14.956639 0.737223 1.690601 0.452497 -1.797012 1.262480 3.608591 1.260932 18.574677 16.957329 -7.186731 11.785301 18.741999 -29.354499 14.500801 -1.729040 -56.322854 -2.638403 7.010369 15.197585 -34.311263 0.771740 -0.252024 -1.591510 -9.298620 28.325251 -6.733151 2.647720 50.420096 7.528799 11.674365 -15.857715 30.898828 -10.379027 2.177263 1.810679 -9.020200 
-0.343079 0.353827 0.971523 64.223616 -1.935375 82.888609 15.168411 -7.149911 -5.384863 -8.308873 -25.436078 32.524203 -2.420584 5.406571 -13.618300 0.000000 -0.000000 0.000000 -12.120622 2.059414 -1.466572 6.173858 15.487914 26.582367 3.871434 6.777764 -24.346701 0.000000 -0.000000 0.000000 1.459829 1.936838 14.257385 0.688742 2.196924 0.913749 -1.824573 1.379780 3.386458 1.624863 19.571521 17.260884 -7.496274 11.903943 18.668653 -29.245373 15.132568 -2.268825 -56.395918 -2.562763 7.398053 14.953325 -33.925775 1.221855 -0.015468 -1.525370 -9.215523 28.184651 -6.667893 2.567238 50.326303 8.152933 11.547538 -15.877250 30.325950 -10.993864 2.228018 1.811886 -9.066560 
-0.327652 0.379384 0.965262 61.654375 -1.559900 83.337281 15.914768 -7.703648 -3.075406 -8.093270 -30.074453 28.674553 -3.739978 3.297045 -16.144505 0.000000 -0.000000 0.000000 -13.522392 2.715547 -2.885664 6.237509 16.535690 27.150096 4.925615 7.293179 -24.378004 0.000000 -0.000000 0.000000 1.577500 1.579003 13.348173 0.851875 2.490733 1.394356 -1.788183 1.493276 3.317747 2.357032 20.591253 17.428866 -7.824395 11.792197 18.897636 -29.475657 15.125974 -1.752624 -56.392201 -2.566723 7.691762 15.531120 -34.178458 0.553717 0.421724 -1.775987 -9.482395 28.411107 -6.210018 3.147029 49.572264 8.649610 11.232822 -16.475410 30.242357 -11.954844 2.172543 1.855521 -9.061352 
-0.311699 0.407390 0.958952 59.063364 -1.173783 83.660816 16.123550 -7.346899 -1.624031 -9.291440 -31.250326 27.376626 -4.193569 2.081096 -20.441842 0.000000 -0.000000 0.000000 -14.851918 2.997912 -4.462041 6.020627 17.929915 27.758205 6.558079 7.863907 -23.942420 0.000000 -0.000000 0.000000 1.667196 1.458686 13.111444 1.061786 2.872407 1.163492 -1.646445 1.469134 3.504366 3.049313 21.178682 17.261459 -8.204329 11.903675 19.419987 -29.452007 15.540023 -2.080249 -56.676834 -2.806008 7.873998 15.090527 -34.206345 1.048681 1.113670 -2.164949 -9.480849 28.709601 -6.473189 2.568075 48.762525 8.993996 11.372602 -16.650085 30.371535 -12.418492 1.811601 1.950360 -8.697887 
-0.294773 0.437152 0.954868 56.915658 -1.015119 83.432141 15.290929 -5.836968 -0.572322 -10.461763 -27.504150 26.922184 -2.381590 2.523616 -23.772332 0.000000 -0.000000 0.000000 -16.399494 3.463531 -4.899143 5.152790 18.692789 27.027040 8.227192 8.156757 -22.369965 0.000000 -0.000000 0.000000 1.781858 1.276350 13.660897 1.138456 2.992085 1.036124 -1.632721 1.344056 3.728635 3.053254 21.113494 16.760760 -8.346789 12.074602 19.928390 -29.451136 15.157454 -1.939041 -56.850190 -3.403226 7.652847 14.878844 -34.166565 1.122462 1.440213 -2.411897 -9.491300 29.494728 -6.505257 2.268198 47.898758 9.616554 11.361122 -17.457950 30.579523 -13.745351 1.406027 2.029995 -8.249178 
-0.279646 0.468379 0.954032 55.853493 -0.675597 84.105783 13.931852 -2.957063 -1.530408 -10.713875 -22.782605 26.768502 -0.154678 3.403679 -25.719469 0.000000 -0.000000 0.000000 -17.428999 3.060724 -6.114939 3.530336 18.807873 25.996713 10.275739 8.055951 -18.898898 0.000000 -0.000000 0.000000 2.053436 0.799391 13.739393 1.313466 2.528951 0.336283 -1.553569 1.218463 3.917128 2.507320 20.515123 16.634227 -8.335172 12.523273 19.995896 -29.114907 14.793760 -1.655731 -57.288786 -4.163646 7.266128 14.391648 -33.917341 1.819190 1.366009 -2.348766 -9.064342 29.877736 -7.002170 2.062628 47.794789 10.295919 11.243328 -18.256027 30.652335 -15.017677 0.862661 2.049497 -7.895536 
